<svg width="64" height="64" viewBox="0 0 64 64" fill="none" xmlns="http://www.w3.org/2000/svg">
<circle cx="31.2453" cy="33.051" r="20.4885" fill="url(#paint0_radial_0_7)"></circle>
<path d="M29.5898 3.87042C29.5898 2.83742 30.4273 2 31.4603 2C32.4933 2 33.3307 2.83742 33.3307 3.87042V8.25742C33.3307 9.29043 32.4933 10.1278 31.4603 10.1278C30.4273 10.1278 29.5898 9.29043 29.5898 8.25742V3.87042Z" fill="url(#paint1_linear_0_7)"></path>
<rect x="9.78125" y="9.6355" width="3.90257" height="7.80515" rx="1.95129" transform="rotate(-39.4382 9.78125 9.6355)" fill="url(#paint2_linear_0_7)"></rect>
<rect x="1" y="29.1484" width="3.90257" height="7.80515" rx="1.95129" transform="rotate(-80.0345 1 29.1484)" fill="url(#paint3_linear_0_7)"></rect>
<rect width="3.90257" height="7.80515" rx="1.95129" transform="matrix(-0.494664 -0.869084 -0.869084 0.494664 12.708 45.7344)" fill="url(#paint4_linear_0_7)"></rect>
<rect width="3.90257" height="7.80515" rx="1.95129" transform="matrix(-0.936692 -0.350155 -0.350155 0.936692 25.3916 54.5151)" fill="url(#paint5_linear_0_7)"></rect>
<path d="M52.5118 11.5233C53.1619 10.733 53.0561 9.56699 52.2744 8.9065C51.478 8.23354 50.2851 8.34173 49.6227 9.14701L46.8361 12.5349C46.186 13.3252 46.2918 14.4913 47.0734 15.1517C47.8699 15.8247 49.0628 15.7165 49.7252 14.9112L52.5118 11.5233Z" fill="url(#paint6_linear_0_7)"></path>
<path d="M61.426 29.7513C62.5086 29.5611 63.1946 28.4829 62.9081 27.4217C62.6558 26.4871 61.7321 25.8994 60.7786 26.0669L56.4727 26.8235C55.3901 27.0137 54.7042 28.092 54.9906 29.1532C55.2429 30.0878 56.1666 30.6754 57.1201 30.5079L61.426 29.7513Z" fill="url(#paint7_linear_0_7)"></path>
<path d="M51.6198 47.3113C50.6819 46.7774 50.3891 45.5627 50.9809 44.6601C51.5222 43.8344 52.6122 43.5717 53.4703 44.0601L57.2765 46.2266C58.2145 46.7604 58.5072 47.9751 57.9155 48.8777C57.3741 49.7034 56.2841 49.9661 55.426 49.4777L51.6198 47.3113Z" fill="url(#paint8_linear_0_7)"></path>
<rect x="38.0742" y="54.5151" width="3.90257" height="7.80515" rx="1.95129" transform="rotate(-20.4968 38.0742 54.5151)" fill="url(#paint9_linear_0_7)"></rect>
<defs>
<radialGradient id="paint0_radial_0_7" cx="0" cy="0" r="1" gradientUnits="userSpaceOnUse" gradientTransform="translate(26.4542 20.6697) rotate(13.1231) scale(30.1634)">
<stop offset="0.1937" stop-color="#F5BE6B"></stop>
<stop offset="0.5293" stop-color="#FFB029"></stop>
<stop offset="0.7805" stop-color="#FF9100"></stop>
</radialGradient>
<linearGradient id="paint1_linear_0_7" x1="30.1106" y1="3.23914" x2="33.9833" y2="4.83558" gradientUnits="userSpaceOnUse">
<stop offset="0.1667" stop-color="#FFE475"></stop>
<stop offset="0.7986" stop-color="#FFBF29"></stop>
</linearGradient>
<linearGradient id="paint2_linear_0_7" x1="10.3998" y1="10.8254" x2="14.6709" y2="13.0032" gradientUnits="userSpaceOnUse">
<stop offset="0.1667" stop-color="#FFE475"></stop>
<stop offset="0.7986" stop-color="#FFBF29"></stop>
</linearGradient>
<linearGradient id="paint3_linear_0_7" x1="1.61858" y1="30.3384" x2="5.88964" y2="32.5161" gradientUnits="userSpaceOnUse">
<stop offset="0.1667" stop-color="#FFE475"></stop>
<stop offset="0.7986" stop-color="#FFBF29"></stop>
</linearGradient>
<linearGradient id="paint4_linear_0_7" x1="0.618583" y1="1.18994" x2="4.88964" y2="3.36771" gradientUnits="userSpaceOnUse">
<stop offset="0.1667" stop-color="#FFE475"></stop>
<stop offset="0.7986" stop-color="#FFBF29"></stop>
</linearGradient>
<linearGradient id="paint5_linear_0_7" x1="0.618583" y1="1.18994" x2="4.88964" y2="3.36771" gradientUnits="userSpaceOnUse">
<stop offset="0.1667" stop-color="#FFE475"></stop>
<stop offset="0.7986" stop-color="#FFBF29"></stop>
</linearGradient>
<linearGradient id="paint6_linear_0_7" x1="52.0084" y1="10.2594" x2="48.3083" y2="9.0122" gradientUnits="userSpaceOnUse">
<stop offset="0.1667" stop-color="#FFE475"></stop>
<stop offset="0.7986" stop-color="#FFBF29"></stop>
</linearGradient>
<linearGradient id="paint7_linear_0_7" x1="61.7073" y1="28.6333" x2="59.5523" y2="25.1585" gradientUnits="userSpaceOnUse">
<stop offset="0.1667" stop-color="#FFE475"></stop>
<stop offset="0.7986" stop-color="#FFBF29"></stop>
</linearGradient>
<linearGradient id="paint8_linear_0_7" x1="51.8284" y1="45.8994" x2="54.6514" y2="43.4811" gradientUnits="userSpaceOnUse">
<stop offset="0.1667" stop-color="#FFE475"></stop>
<stop offset="0.7986" stop-color="#FFBF29"></stop>
</linearGradient>
<linearGradient id="paint9_linear_0_7" x1="38.6928" y1="55.7051" x2="42.9639" y2="57.8828" gradientUnits="userSpaceOnUse">
<stop offset="0.1667" stop-color="#FFE475"></stop>
<stop offset="0.7986" stop-color="#FFBF29"></stop>
</linearGradient>
</defs>
</svg>