<svg width="64" height="64" viewBox="0 0 64 64" fill="none" xmlns="http://www.w3.org/2000/svg">
<path d="M1.81725 23.9531C4.42174 25.8821 7.65266 27.024 11.1523 27.024C19.7811 27.024 26.7761 20.0819 26.7761 11.5184C26.7761 7.70261 25.3872 4.20878 23.0839 1.50757C31.7498 3.04477 38.3307 10.615 38.3307 19.7222C38.3307 29.9394 30.0481 38.222 19.831 38.222C11.0695 38.222 3.73063 32.1314 1.81725 23.9531Z" fill="url(#paint0_linear_0_304)"></path>
<g style="mix-blend-mode:darken" opacity="0.4">
<path fill-rule="evenodd" clip-rule="evenodd" d="M23.2995 33.7687C23.0844 34.1808 22.982 34.6557 22.5921 34.9084C22.1841 35.1729 21.6915 35.1559 21.2066 35.1252C20.5395 35.083 19.7617 35.208 19.3249 34.7017C18.8528 34.1543 18.8133 33.3133 19.0558 32.6316C19.2844 31.989 19.955 31.6964 20.5263 31.3246C21.1504 30.9184 21.7355 30.292 22.4701 30.4097C23.242 30.5333 23.9712 31.1466 24.1588 31.9063C24.3291 32.5961 23.6283 33.1386 23.2995 33.7687Z" fill="url(#paint1_radial_0_304)" fill-opacity="0.3"></path>
</g>
<g style="mix-blend-mode:darken" opacity="0.32">
<path fill-rule="evenodd" clip-rule="evenodd" d="M34.8339 24.8856C34.5391 25.4505 34.3986 26.1015 33.8642 26.4479C33.305 26.8104 32.6297 26.7871 31.9651 26.7451C31.0507 26.6872 29.9845 26.8585 29.3859 26.1645C28.7387 25.4142 28.6845 24.2614 29.0169 23.327C29.3303 22.4462 30.2495 22.045 31.0326 21.5354C31.8881 20.9787 32.69 20.1201 33.697 20.2813C34.7551 20.4508 35.7546 21.2915 36.0117 22.3328C36.2452 23.2784 35.2846 24.022 34.8339 24.8856Z" fill="url(#paint2_radial_0_304)" fill-opacity="0.3"></path>
</g>
<g style="mix-blend-mode:darken" opacity="0.22">
<path fill-rule="evenodd" clip-rule="evenodd" d="M28.5518 13.9764C28.7022 13.6881 28.7739 13.3558 29.0467 13.179C29.3322 12.994 29.6768 13.0059 30.016 13.0273C30.4827 13.0569 31.027 12.9694 31.3325 13.3237C31.6628 13.7066 31.6905 14.2951 31.5209 14.772C31.3609 15.2216 30.8917 15.4263 30.492 15.6864C30.0554 15.9706 29.646 16.4089 29.132 16.3265C28.592 16.2401 28.0818 15.811 27.9506 15.2794C27.8314 14.7968 28.3217 14.4173 28.5518 13.9764Z" fill="url(#paint3_radial_0_304)" fill-opacity="0.3"></path>
</g>
<path d="M12.7314 37.6369C13.8396 27.9217 21.8632 20.432 31.3475 20.432C39.7372 20.432 47.0186 26.157 49.3469 34.4656C49.3977 34.4568 49.4536 34.4603 49.5061 34.4532C49.9823 34.395 50.4635 34.3526 50.955 34.3526C57.6094 34.3526 63.02 39.9911 63.02 46.9197C63.02 53.8483 57.6094 59.485 50.955 59.485H13.5244C7.73252 59.485 3.02002 54.5771 3.02002 48.5433C3.02002 42.8042 7.28516 38.0816 12.7314 37.6369Z" fill="url(#paint4_linear_0_304)"></path>
<defs>
<linearGradient id="paint0_linear_0_304" x1="17.9551" y1="1.50757" x2="17.9551" y2="38.222" gradientUnits="userSpaceOnUse">
<stop stop-color="#A38FEE"></stop>
<stop offset="0.853177" stop-color="#5D4ADE"></stop>
</linearGradient>
<radialGradient id="paint1_radial_0_304" cx="0" cy="0" r="1" gradientUnits="userSpaceOnUse" gradientTransform="translate(21.517 32.8077) rotate(105) scale(2.57317 2.43094)">
<stop stop-color="#0B17A1" stop-opacity="0.7"></stop>
<stop offset="1" stop-color="#0B17A1"></stop>
</radialGradient>
<radialGradient id="paint2_radial_0_304" cx="0" cy="0" r="1" gradientUnits="userSpaceOnUse" gradientTransform="translate(32.3906 23.5684) rotate(105) scale(3.5271 3.33215)">
<stop stop-color="#0B17A1" stop-opacity="0.7"></stop>
<stop offset="1" stop-color="#0B17A1"></stop>
</radialGradient>
<radialGradient id="paint3_radial_0_304" cx="0" cy="0" r="1" gradientUnits="userSpaceOnUse" gradientTransform="translate(29.7989 14.6488) rotate(-75) scale(1.8003 1.70079)">
<stop stop-color="#0B17A1" stop-opacity="0.7"></stop>
<stop offset="1" stop-color="#0B17A1"></stop>
</radialGradient>
<linearGradient id="paint4_linear_0_304" x1="28.7152" y1="25.2361" x2="33.02" y2="59.485" gradientUnits="userSpaceOnUse">
<stop stop-color="#EEFAFE"></stop>
<stop offset="1" stop-color="#BACFDB"></stop>
</linearGradient>
</defs>
</svg>