<svg width="64" height="64" viewBox="0 0 64 64" fill="none" xmlns="http://www.w3.org/2000/svg">
<path d="M0.79163 25.8418C3.44121 27.8041 6.72807 28.9658 10.2883 28.9658C19.0665 28.9658 26.1826 21.9035 26.1826 13.1917C26.1826 9.30987 24.7697 5.75554 22.4265 3.00757C31.2424 4.57139 37.9373 12.2727 37.9373 21.5376C37.9373 31.9316 29.5112 40.3576 19.1172 40.3576C10.2041 40.3576 2.73813 34.1616 0.79163 25.8418Z" fill="url(#paint0_linear_0_357)"></path>
<g style="mix-blend-mode:darken" opacity="0.4">
<path fill-rule="evenodd" clip-rule="evenodd" d="M22.646 35.8272C22.4272 36.2465 22.3229 36.7296 21.9263 36.9867C21.5113 37.2557 21.0101 37.2385 20.5168 37.2073C19.8382 37.1643 19.0469 37.2915 18.6026 36.7764C18.1223 36.2196 18.0821 35.3639 18.3288 34.6705C18.5613 34.0167 19.2436 33.719 19.8248 33.3408C20.4597 32.9276 21.0549 32.2904 21.8022 32.41C22.5875 32.5358 23.3293 33.1597 23.5201 33.9326C23.6934 34.6344 22.9805 35.1862 22.646 35.8272Z" fill="url(#paint1_radial_0_357)" fill-opacity="0.3"></path>
</g>
<g style="mix-blend-mode:darken" opacity="0.32">
<path fill-rule="evenodd" clip-rule="evenodd" d="M34.3799 26.7904C34.08 27.3651 33.9372 28.0273 33.3935 28.3797C32.8246 28.7485 32.1377 28.7248 31.4615 28.682C30.5313 28.6232 29.4466 28.7974 28.8376 28.0914C28.1793 27.3281 28.1241 26.1553 28.4623 25.2048C28.7811 24.3087 29.7162 23.9006 30.5129 23.3822C31.3832 22.8158 32.199 21.9423 33.2234 22.1064C34.2998 22.2787 35.3166 23.134 35.5782 24.1934C35.8157 25.1553 34.8385 25.9118 34.3799 26.7904Z" fill="url(#paint2_radial_0_357)" fill-opacity="0.3"></path>
</g>
<g style="mix-blend-mode:darken" opacity="0.22">
<path fill-rule="evenodd" clip-rule="evenodd" d="M27.9889 15.6923C28.142 15.399 28.2149 15.0609 28.4924 14.8811C28.7828 14.6929 29.1334 14.7049 29.4786 14.7268C29.9533 14.7568 30.507 14.6679 30.8178 15.0282C31.1539 15.4178 31.182 16.0165 31.0094 16.5016C30.8467 16.959 30.3694 17.1673 29.9627 17.4319C29.5186 17.721 29.1021 18.1669 28.5792 18.0831C28.0299 17.9951 27.5108 17.5586 27.3773 17.0179C27.2561 16.5269 27.7549 16.1408 27.9889 15.6923Z" fill="url(#paint3_radial_0_357)" fill-opacity="0.3"></path>
</g>
<path d="M36.8645 48.9878C37.0634 48.6852 37.3988 48.4868 37.7796 48.4868C38.3901 48.4868 38.8848 48.9977 38.8848 49.6283V53.0072L41.7181 51.3178C42.2466 51.0025 42.9227 51.1896 43.2277 51.7355C43.533 52.2813 43.3518 52.9797 42.8233 53.2946L39.8488 55.0685L42.679 57.0785C43.1819 57.4359 43.3094 58.1466 42.9634 58.666C42.6175 59.1853 41.9293 59.317 41.4265 58.9597L38.8848 57.1548V60.3406C38.8848 60.9712 38.3901 61.4821 37.7796 61.4821C37.169 61.4821 36.6744 60.9712 36.6744 60.3406V56.9613L33.8411 58.6508C33.3126 58.9661 32.6364 58.779 32.3312 58.2331C32.0262 57.6872 32.2074 56.9892 32.7359 56.6739L35.7104 54.9004L32.8802 52.8904C32.3773 52.5331 32.2498 51.8223 32.5958 51.3029C32.9414 50.7836 33.6295 50.6519 34.1327 51.0092L36.6744 52.8141V49.6283C36.6744 49.391 36.7445 49.1704 36.8645 48.9878Z" fill="url(#paint4_radial_0_357)" fill-opacity="0.9"></path>
<path d="M21.1128 27.0238C22.0363 18.9279 28.7227 12.6864 36.6263 12.6864C43.6176 12.6864 49.6855 17.4572 51.6257 24.3811C51.6681 24.3737 51.7147 24.3767 51.7584 24.3708C52.1552 24.3222 52.5563 24.2869 52.9658 24.2869C58.5112 24.2869 63.02 28.9857 63.02 34.7595C63.02 40.5333 58.5112 45.2306 52.9658 45.2306H21.7737C16.9471 45.2306 13.02 41.1407 13.02 36.1125C13.02 31.3299 16.5743 27.3944 21.1128 27.0238Z" fill="url(#paint5_linear_0_357)"></path>
<defs>
<linearGradient id="paint0_linear_0_357" x1="17.2089" y1="3.00757" x2="17.2089" y2="40.3576" gradientUnits="userSpaceOnUse">
<stop stop-color="#A38FEE"></stop>
<stop offset="0.853177" stop-color="#5D4ADE"></stop>
</linearGradient>
<radialGradient id="paint1_radial_0_357" cx="0" cy="0" r="1" gradientUnits="userSpaceOnUse" gradientTransform="translate(20.8326 34.8496) rotate(105) scale(2.61772 2.47303)">
<stop stop-color="#0B17A1" stop-opacity="0.7"></stop>
<stop offset="1" stop-color="#0B17A1"></stop>
</radialGradient>
<radialGradient id="paint2_radial_0_357" cx="0" cy="0" r="1" gradientUnits="userSpaceOnUse" gradientTransform="translate(31.8944 25.4504) rotate(105) scale(3.58817 3.38984)">
<stop stop-color="#0B17A1" stop-opacity="0.7"></stop>
<stop offset="1" stop-color="#0B17A1"></stop>
</radialGradient>
<radialGradient id="paint3_radial_0_357" cx="0" cy="0" r="1" gradientUnits="userSpaceOnUse" gradientTransform="translate(29.2576 16.3763) rotate(-75) scale(1.83147 1.73024)">
<stop stop-color="#0B17A1" stop-opacity="0.7"></stop>
<stop offset="1" stop-color="#0B17A1"></stop>
</radialGradient>
<radialGradient id="paint4_radial_0_357" cx="0" cy="0" r="1" gradientUnits="userSpaceOnUse" gradientTransform="translate(37.8187 48.12) rotate(88.4487) scale(17.6942 12.3605)">
<stop offset="0.239583" stop-color="#B7E9FE"></stop>
<stop offset="1" stop-color="#5ECFFF"></stop>
</radialGradient>
<linearGradient id="paint5_linear_0_357" x1="34.4327" y1="16.6898" x2="38.02" y2="45.2306" gradientUnits="userSpaceOnUse">
<stop stop-color="#EEFAFE"></stop>
<stop offset="1" stop-color="#BACFDB"></stop>
</linearGradient>
</defs>
</svg>