<svg width="64" height="64" viewBox="0 0 64 64" fill="none" xmlns="http://www.w3.org/2000/svg">
<rect x="28.0649" y="47" width="3.93588" height="16.7275" rx="1.96794" transform="rotate(90 28.0649 47)" fill="url(#paint0_linear_0_85)"></rect>
<rect x="36.9204" y="55.5918" width="3.93588" height="20.6634" rx="1.96794" transform="rotate(90 36.9204 55.5918)" fill="url(#paint1_linear_0_85)"></rect>
<rect x="53.6479" y="47" width="3.93588" height="22.6313" rx="1.96794" transform="rotate(90 53.6479 47)" fill="url(#paint2_linear_0_85)"></rect>
<rect x="48.728" y="55.5918" width="3.93588" height="8.85574" rx="1.96794" transform="rotate(90 48.728 55.5918)" fill="url(#paint3_linear_0_85)"></rect>
<path d="M11.7314 20.6369C12.8396 10.9217 20.8632 3.43198 30.3475 3.43198C38.7372 3.43198 46.0186 9.15696 48.3469 17.4656C48.3977 17.4568 48.4536 17.4603 48.5061 17.4532C48.9823 17.395 49.4635 17.3526 49.955 17.3526C56.6094 17.3526 62.02 22.9911 62.02 29.9197C62.02 36.8483 56.6094 42.485 49.955 42.485H12.5244C6.73252 42.485 2.02002 37.5771 2.02002 31.5433C2.02002 25.8042 6.28516 21.0816 11.7314 20.6369Z" fill="url(#paint4_linear_0_85)"></path>
<defs>
<linearGradient id="paint0_linear_0_85" x1="30.0329" y1="47" x2="30.0329" y2="63.7275" gradientUnits="userSpaceOnUse">
<stop stop-color="#EEFAFE"></stop>
<stop offset="1" stop-color="#BACFDB"></stop>
</linearGradient>
<linearGradient id="paint1_linear_0_85" x1="38.8884" y1="55.5918" x2="38.8884" y2="76.2552" gradientUnits="userSpaceOnUse">
<stop stop-color="#EEFAFE"></stop>
<stop offset="1" stop-color="#BACFDB"></stop>
</linearGradient>
<linearGradient id="paint2_linear_0_85" x1="55.6159" y1="47" x2="55.6159" y2="69.6313" gradientUnits="userSpaceOnUse">
<stop stop-color="#EEFAFE"></stop>
<stop offset="1" stop-color="#BACFDB"></stop>
</linearGradient>
<linearGradient id="paint3_linear_0_85" x1="50.696" y1="55.5918" x2="50.696" y2="64.4475" gradientUnits="userSpaceOnUse">
<stop stop-color="#EEFAFE"></stop>
<stop offset="1" stop-color="#BACFDB"></stop>
</linearGradient>
<linearGradient id="paint4_linear_0_85" x1="27.7152" y1="8.23612" x2="32.02" y2="42.485" gradientUnits="userSpaceOnUse">
<stop stop-color="#EEFAFE"></stop>
<stop offset="1" stop-color="#BACFDB"></stop>
</linearGradient>
</defs>
</svg>