<svg width="64" height="64" viewBox="0 0 64 64" fill="none" xmlns="http://www.w3.org/2000/svg">
<path d="M31.1745 44.5949C31.4042 44.2456 31.7913 44.0166 32.2308 44.0166C32.9356 44.0166 33.5065 44.6063 33.5065 45.3342V49.2344L36.7769 47.2843C37.3869 46.9203 38.1674 47.1363 38.5194 47.7664C38.8717 48.3965 38.6626 49.2026 38.0526 49.5661L34.6193 51.6136L37.886 53.9337C38.4665 54.3462 38.6137 55.1665 38.2143 55.766C37.815 56.3655 37.0207 56.5176 36.4403 56.1051L33.5065 54.0218V57.699C33.5065 58.4269 32.9356 59.0166 32.2308 59.0166C31.5261 59.0166 30.9551 58.4269 30.9551 57.699V53.7984L27.6848 55.7485C27.0748 56.1125 26.2943 55.8965 25.9419 55.2664C25.5899 54.6363 25.7991 53.8306 26.4091 53.4667L29.8424 51.4196L26.5756 49.0995C25.9952 48.687 25.848 47.8667 26.2473 47.2672C26.6462 46.6677 27.4405 46.5157 28.0214 46.9281L30.9551 49.0114V45.3342C30.9551 45.0603 31.036 44.8056 31.1745 44.5949Z" fill="url(#paint0_radial_0_182)" fill-opacity="0.9"></path>
<path d="M11.7314 18.6369C12.8396 8.92174 20.8632 1.43198 30.3475 1.43198C38.7372 1.43198 46.0186 7.15696 48.3469 15.4656C48.3977 15.4568 48.4536 15.4603 48.5061 15.4532C48.9823 15.395 49.4635 15.3526 49.955 15.3526C56.6094 15.3526 62.02 20.9911 62.02 27.9197C62.02 34.8483 56.6094 40.485 49.955 40.485H12.5244C6.73252 40.485 2.02002 35.5771 2.02002 29.5433C2.02002 23.8042 6.28516 19.0816 11.7314 18.6369Z" fill="url(#paint1_linear_0_182)"></path>
<defs>
<radialGradient id="paint0_radial_0_182" cx="0" cy="0" r="1" gradientUnits="userSpaceOnUse" gradientTransform="translate(32.276 43.5932) rotate(88.4487) scale(20.4238 14.2672)">
<stop offset="0.239583" stop-color="#B7E9FE"></stop>
<stop offset="1" stop-color="#5ECFFF"></stop>
</radialGradient>
<linearGradient id="paint1_linear_0_182" x1="27.7152" y1="6.23612" x2="32.02" y2="40.485" gradientUnits="userSpaceOnUse">
<stop stop-color="#EEFAFE"></stop>
<stop offset="1" stop-color="#BACFDB"></stop>
</linearGradient>
</defs>
</svg>