<svg width="64" height="64" viewBox="0 0 64 64" fill="none" xmlns="http://www.w3.org/2000/svg">
<circle cx="30.5083" cy="30.9918" r="19.6721" fill="url(#paint0_radial_0_18)"></circle>
<path d="M28.4719 3.39785C28.4719 2.40523 29.2766 1.60055 30.2692 1.60055C31.2618 1.60055 32.0665 2.40523 32.0665 3.39785V7.61334C32.0665 8.60596 31.2618 9.41063 30.2692 9.41063C29.2766 9.41063 28.4719 8.60596 28.4719 7.61334V3.39785Z" fill="url(#paint1_linear_0_18)"></path>
<rect x="8.8689" y="8.36885" width="3.93443" height="7.86885" rx="1.96721" transform="rotate(-39.4382 8.8689 8.36885)" fill="url(#paint2_linear_0_18)"></rect>
<rect x="1" y="27.0574" width="3.93443" height="7.86885" rx="1.96721" transform="rotate(-80.0345 1 27.0574)" fill="url(#paint3_linear_0_18)"></rect>
<rect width="3.93443" height="7.86885" rx="1.96721" transform="matrix(-0.494664 -0.869084 -0.869084 0.494664 11.8196 43.7787)" fill="url(#paint4_linear_0_18)"></rect>
<rect width="3.93443" height="7.86885" rx="1.96721" transform="matrix(-0.936692 -0.350155 -0.350155 0.936692 23.623 52.6311)" fill="url(#paint5_linear_0_18)"></rect>
<path d="M50.4978 10.7516C51.1225 9.99213 51.0209 8.87169 50.2698 8.23703C49.5045 7.59037 48.3582 7.69433 47.7217 8.46813L45.044 11.7236C44.4194 12.483 44.521 13.6034 45.2721 14.2381C46.0374 14.8848 47.1837 14.7808 47.8201 14.007L50.4978 10.7516Z" fill="url(#paint6_linear_0_18)"></path>
<path d="M59.0634 28.2667C60.1037 28.0839 60.7628 27.0478 60.4876 26.0281C60.2451 25.1301 59.3575 24.5654 58.4413 24.7263L54.3038 25.4533C53.2635 25.6361 52.6043 26.6722 52.8796 27.6919C53.122 28.59 54.0096 29.1547 54.9258 28.9937L59.0634 28.2667Z" fill="url(#paint7_linear_0_18)"></path>
<path d="M49.6412 45.1405C48.74 44.6275 48.4586 43.4602 49.0273 42.593C49.5475 41.7996 50.5948 41.5471 51.4194 42.0165L55.0768 44.0982C55.9781 44.6112 56.2594 45.7784 55.6908 46.6457C55.1706 47.4391 54.1232 47.6915 53.2987 47.2222L49.6412 45.1405Z" fill="url(#paint8_linear_0_18)"></path>
<rect x="36.4099" y="52.6311" width="3.93443" height="7.86885" rx="1.96721" transform="rotate(-20.4968 36.4099 52.6311)" fill="url(#paint9_linear_0_18)"></rect>
<path d="M37.8622 30.7961C38.417 25.932 42.4342 22.1821 47.1828 22.1821C51.3832 22.1821 55.0288 25.0484 56.1945 29.2083C56.22 29.2039 56.248 29.2057 56.2743 29.2022C56.5127 29.173 56.7536 29.1518 56.9996 29.1518C60.3313 29.1518 63.0403 31.9748 63.0403 35.4438C63.0403 38.9127 60.3313 41.7349 56.9996 41.7349H38.2592C35.3594 41.7349 33 39.2776 33 36.2567C33 33.3833 35.1354 31.0188 37.8622 30.7961Z" fill="url(#paint10_linear_0_18)"></path>
<defs>
<radialGradient id="paint0_radial_0_18" cx="0" cy="0" r="1" gradientUnits="userSpaceOnUse" gradientTransform="translate(25.9081 19.1038) rotate(13.1231) scale(28.9615)">
<stop offset="0.1937" stop-color="#F5BE6B"></stop>
<stop offset="0.5293" stop-color="#FFB029"></stop>
<stop offset="0.7805" stop-color="#FF9100"></stop>
</radialGradient>
<linearGradient id="paint1_linear_0_18" x1="28.9724" y1="2.79125" x2="32.6936" y2="4.32528" gradientUnits="userSpaceOnUse">
<stop offset="0.1667" stop-color="#FFE475"></stop>
<stop offset="0.7986" stop-color="#FFBF29"></stop>
</linearGradient>
<linearGradient id="paint2_linear_0_18" x1="9.49253" y1="9.56851" x2="13.7985" y2="11.764" gradientUnits="userSpaceOnUse">
<stop offset="0.1667" stop-color="#FFE475"></stop>
<stop offset="0.7986" stop-color="#FFBF29"></stop>
</linearGradient>
<linearGradient id="paint3_linear_0_18" x1="1.62363" y1="28.257" x2="5.92955" y2="30.4526" gradientUnits="userSpaceOnUse">
<stop offset="0.1667" stop-color="#FFE475"></stop>
<stop offset="0.7986" stop-color="#FFBF29"></stop>
</linearGradient>
<linearGradient id="paint4_linear_0_18" x1="0.623632" y1="1.19965" x2="4.92955" y2="3.3952" gradientUnits="userSpaceOnUse">
<stop offset="0.1667" stop-color="#FFE475"></stop>
<stop offset="0.7986" stop-color="#FFBF29"></stop>
</linearGradient>
<linearGradient id="paint5_linear_0_18" x1="0.623632" y1="1.19965" x2="4.92955" y2="3.3952" gradientUnits="userSpaceOnUse">
<stop offset="0.1667" stop-color="#FFE475"></stop>
<stop offset="0.7986" stop-color="#FFBF29"></stop>
</linearGradient>
<linearGradient id="paint6_linear_0_18" x1="50.0141" y1="9.53707" x2="46.4587" y2="8.3386" gradientUnits="userSpaceOnUse">
<stop offset="0.1667" stop-color="#FFE475"></stop>
<stop offset="0.7986" stop-color="#FFBF29"></stop>
</linearGradient>
<linearGradient id="paint7_linear_0_18" x1="59.3337" y1="27.1924" x2="57.2629" y2="23.8534" gradientUnits="userSpaceOnUse">
<stop offset="0.1667" stop-color="#FFE475"></stop>
<stop offset="0.7986" stop-color="#FFBF29"></stop>
</linearGradient>
<linearGradient id="paint8_linear_0_18" x1="49.8417" y1="43.7838" x2="52.5543" y2="41.4601" gradientUnits="userSpaceOnUse">
<stop offset="0.1667" stop-color="#FFE475"></stop>
<stop offset="0.7986" stop-color="#FFBF29"></stop>
</linearGradient>
<linearGradient id="paint9_linear_0_18" x1="37.0335" y1="53.8308" x2="41.3395" y2="56.0263" gradientUnits="userSpaceOnUse">
<stop offset="0.1667" stop-color="#FFE475"></stop>
<stop offset="0.7986" stop-color="#FFBF29"></stop>
</linearGradient>
<linearGradient id="paint10_linear_0_18" x1="45.8648" y1="24.5874" x2="48.0201" y2="41.7349" gradientUnits="userSpaceOnUse">
<stop stop-color="#EEFAFE"></stop>
<stop offset="1" stop-color="#BACFDB"></stop>
</linearGradient>
</defs>
</svg>