<svg width="64" height="64" viewBox="0 0 64 64" fill="none" xmlns="http://www.w3.org/2000/svg">
<circle cx="26.9167" cy="27.9137" r="17.9445" fill="url(#paint0_radial_0_32)"></circle>
<path d="M25.1829 2.65628C25.1829 1.74638 25.9205 1.00876 26.8304 1.00876C27.7403 1.00876 28.4779 1.74638 28.4779 2.65628V6.52048C28.4779 7.43038 27.7403 8.168 26.8304 8.168C25.9205 8.168 25.1829 7.43038 25.1829 6.52048V2.65628Z" fill="url(#paint1_linear_0_32)"></path>
<rect x="7.97534" y="7.97535" width="2.99076" height="6.97843" rx="1.49538" transform="rotate(-39.4382 7.97534 7.97535)" fill="url(#paint2_linear_0_32)"></rect>
<rect y="24.923" width="2.99076" height="6.97843" rx="1.49538" transform="rotate(-80.0345 0 24.923)" fill="url(#paint3_linear_0_32)"></rect>
<rect width="2.99076" height="6.97843" rx="1.49538" transform="matrix(-0.494664 -0.869084 -0.869084 0.494664 9.96924 39.8767)" fill="url(#paint4_linear_0_32)"></rect>
<rect width="2.99076" height="6.97843" rx="1.49538" transform="matrix(-0.936692 -0.350155 -0.350155 0.936692 20.9353 47.8521)" fill="url(#paint5_linear_0_32)"></rect>
<path d="M45.3733 9.39717C45.9459 8.70102 45.8527 7.67395 45.1642 7.09218C44.4627 6.49941 43.4119 6.59471 42.8285 7.30402L40.374 10.2882C39.8014 10.9843 39.8945 12.0114 40.583 12.5932C41.2845 13.1859 42.3353 13.0906 42.9187 12.3813L45.3733 9.39717Z" fill="url(#paint6_linear_0_32)"></path>
<path d="M53.2248 25.4528C54.1784 25.2853 54.7826 24.3355 54.5303 23.4008C54.308 22.5776 53.4944 22.0599 52.6546 22.2075L48.8618 22.8739C47.9082 23.0415 47.304 23.9912 47.5563 24.926C47.7785 25.7492 48.5922 26.2668 49.432 26.1192L53.2248 25.4528Z" fill="url(#paint7_linear_0_32)"></path>
<path d="M44.5876 40.9203C43.7614 40.4501 43.5035 39.3801 44.0248 38.5851C44.5016 37.8578 45.4617 37.6264 46.2175 38.0566L49.5702 39.9649C50.3963 40.4351 50.6542 41.5051 50.133 42.3001C49.6561 43.0274 48.6961 43.2588 47.9402 42.8286L44.5876 40.9203Z" fill="url(#paint8_linear_0_32)"></path>
<rect x="32.8982" y="47.8521" width="2.99076" height="6.97843" rx="1.49538" transform="rotate(-20.4968 32.8982 47.8521)" fill="url(#paint9_linear_0_32)"></rect>
<path d="M21.451 41.0625C22.356 33.1285 28.9086 27.0118 36.6541 27.0118C43.5057 27.0118 49.4522 31.6872 51.3536 38.4726C51.3951 38.4654 51.4408 38.4683 51.4837 38.4625C51.8725 38.415 52.2656 38.3804 52.6669 38.3804C58.1013 38.3804 62.52 42.9851 62.52 48.6435C62.52 54.3018 58.1013 58.9051 52.6669 58.9051H22.0986C17.3686 58.9051 13.52 54.897 13.52 49.9694C13.52 45.2825 17.0032 41.4257 21.451 41.0625Z" fill="url(#paint10_linear_0_32)"></path>
<defs>
<radialGradient id="paint0_radial_0_32" cx="0" cy="0" r="1" gradientUnits="userSpaceOnUse" gradientTransform="translate(22.7205 17.0697) rotate(13.1231) scale(26.4181)">
<stop offset="0.1937" stop-color="#F5BE6B"></stop>
<stop offset="0.5293" stop-color="#FFB029"></stop>
<stop offset="0.7805" stop-color="#FF9100"></stop>
</radialGradient>
<linearGradient id="paint1_linear_0_32" x1="25.6416" y1="2.10023" x2="29.0527" y2="3.50642" gradientUnits="userSpaceOnUse">
<stop offset="0.1667" stop-color="#FFE475"></stop>
<stop offset="0.7986" stop-color="#FFBF29"></stop>
</linearGradient>
<linearGradient id="paint2_linear_0_32" x1="8.4494" y1="9.03925" x2="11.9121" y2="10.5526" gradientUnits="userSpaceOnUse">
<stop offset="0.1667" stop-color="#FFE475"></stop>
<stop offset="0.7986" stop-color="#FFBF29"></stop>
</linearGradient>
<linearGradient id="paint3_linear_0_32" x1="0.474054" y1="25.9869" x2="3.93676" y2="27.5002" gradientUnits="userSpaceOnUse">
<stop offset="0.1667" stop-color="#FFE475"></stop>
<stop offset="0.7986" stop-color="#FFBF29"></stop>
</linearGradient>
<linearGradient id="paint4_linear_0_32" x1="0.474054" y1="1.0639" x2="3.93676" y2="2.57727" gradientUnits="userSpaceOnUse">
<stop offset="0.1667" stop-color="#FFE475"></stop>
<stop offset="0.7986" stop-color="#FFBF29"></stop>
</linearGradient>
<linearGradient id="paint5_linear_0_32" x1="0.474054" y1="1.0639" x2="3.93676" y2="2.57727" gradientUnits="userSpaceOnUse">
<stop offset="0.1667" stop-color="#FFE475"></stop>
<stop offset="0.7986" stop-color="#FFBF29"></stop>
</linearGradient>
<linearGradient id="paint6_linear_0_32" x1="44.9299" y1="8.28389" x2="41.6707" y2="7.18528" gradientUnits="userSpaceOnUse">
<stop offset="0.1667" stop-color="#FFE475"></stop>
<stop offset="0.7986" stop-color="#FFBF29"></stop>
</linearGradient>
<linearGradient id="paint7_linear_0_32" x1="53.4725" y1="24.468" x2="51.5743" y2="21.4073" gradientUnits="userSpaceOnUse">
<stop offset="0.1667" stop-color="#FFE475"></stop>
<stop offset="0.7986" stop-color="#FFBF29"></stop>
</linearGradient>
<linearGradient id="paint8_linear_0_32" x1="44.7713" y1="39.6767" x2="47.2579" y2="37.5466" gradientUnits="userSpaceOnUse">
<stop offset="0.1667" stop-color="#FFE475"></stop>
<stop offset="0.7986" stop-color="#FFBF29"></stop>
</linearGradient>
<linearGradient id="paint9_linear_0_32" x1="33.3722" y1="48.916" x2="36.835" y2="50.4294" gradientUnits="userSpaceOnUse">
<stop offset="0.1667" stop-color="#FFE475"></stop>
<stop offset="0.7986" stop-color="#FFBF29"></stop>
</linearGradient>
<linearGradient id="paint10_linear_0_32" x1="34.5044" y1="30.9352" x2="38.02" y2="58.9051" gradientUnits="userSpaceOnUse">
<stop stop-color="#EEFAFE"></stop>
<stop offset="1" stop-color="#BACFDB"></stop>
</linearGradient>
</defs>
</svg>