<svg width="64" height="64" viewBox="0 0 64 64" fill="none" xmlns="http://www.w3.org/2000/svg">
<path d="M24.5872 38.7032C24.9321 38.4479 25.1507 38.0514 25.1507 37.6224L25.1507 10.0512C25.1507 8.12322 25.9166 6.27419 27.2799 4.9109C28.6432 3.5476 30.4922 2.7817 32.4202 2.7817C34.3482 2.7817 36.1972 3.5476 37.5605 4.9109C38.9238 6.27419 39.6897 8.12322 39.6897 10.0512L39.6897 38.295C39.6897 38.6866 39.8724 39.0535 40.1682 39.3102C41.8156 40.7402 43.0618 42.5802 43.7773 44.6486C44.5605 46.9128 44.6745 49.3547 44.1058 51.6821C43.537 54.0094 42.3096 56.1236 40.5704 57.7713C38.8312 59.4191 36.6539 60.5308 34.2993 60.9731C33.4447 61.1998 32.5561 61.2702 31.6764 61.1808C29.0237 61.1117 26.4624 60.1977 24.3651 58.5718C22.2679 56.946 20.7444 54.6932 20.0163 52.1415C19.2882 49.5897 19.3936 46.8722 20.317 44.3845C21.1606 42.112 22.6466 40.1393 24.5872 38.7032Z" fill="url(#paint0_linear_0_247)" fill-opacity="0.6"></path>
<path d="M27.1911 41.3203C27.6132 41.0449 27.8958 40.5889 27.8958 40.0849V32.3617C27.8958 29.9528 29.8486 28 32.2575 28C34.6664 28 36.6192 29.9528 36.6192 32.3617V40.1957C36.6192 40.6415 36.8678 41.0458 37.2427 41.287C38.7802 42.2759 39.9898 43.6985 40.7188 45.3749C41.4477 47.0513 41.6631 48.9062 41.3378 50.7051C41.0126 52.504 40.1611 54.1659 38.8913 55.4809C37.6214 56.7959 35.9902 57.7048 34.2038 58.0926C32.4174 58.4805 30.5561 58.3299 28.8552 57.66C27.1544 56.99 25.6904 55.8307 24.6485 54.3287C23.6065 52.8267 23.0333 51.0495 23.0014 49.2217C22.9586 46.7708 23.8912 44.4032 25.5941 42.6399C26.0792 42.1376 26.6155 41.696 27.1911 41.3203Z" fill="url(#paint1_linear_0_247)"></path>
<rect width="3" height="8" rx="1.5" transform="matrix(-4.37114e-08 -1 1 0.000684861 42 10)" fill="url(#paint2_radial_0_247)" fill-opacity="0.9"></rect>
<path d="M43.5394 17.0878C42.6891 17.0866 42 16.3966 42 15.5463C42 14.6955 42.69 14.0064 43.5408 14.0076L45.3405 14.01C46.1908 14.0112 46.8798 14.7012 46.8798 15.5515C46.8798 16.4023 46.1899 17.0914 45.339 17.0902L43.5394 17.0878Z" fill="url(#paint3_radial_0_247)" fill-opacity="0.9"></path>
<rect width="3" height="8" rx="1.5" transform="matrix(-3.40966e-08 -1 1 0.000877983 42 24.0923)" fill="url(#paint4_radial_0_247)" fill-opacity="0.9"></rect>
<path d="M43.5394 31.1817C42.6891 31.1805 42 30.4905 42 29.6402C42 28.7893 42.69 28.1003 43.5408 28.1015L45.3405 28.1039C46.1908 28.1051 46.8798 28.7951 46.8798 29.6454C46.8798 30.4962 46.1899 31.1853 45.339 31.1841L43.5394 31.1817Z" fill="url(#paint5_radial_0_247)" fill-opacity="0.9"></path>
<rect width="3" height="8" rx="1.5" transform="matrix(-3.40966e-08 -1 1 0.000877983 42 38.1862)" fill="url(#paint6_radial_0_247)" fill-opacity="0.9"></rect>
<defs>
<linearGradient id="paint0_linear_0_247" x1="34.0198" y1="3" x2="24.1822" y2="59.2804" gradientUnits="userSpaceOnUse">
<stop stop-color="#EAF6FF"></stop>
<stop offset="1" stop-color="#4AB4FF"></stop>
</linearGradient>
<linearGradient id="paint1_linear_0_247" x1="33.9701" y1="51.5" x2="30.7612" y2="29.4673" gradientUnits="userSpaceOnUse">
<stop stop-color="#4AB4FF"></stop>
<stop offset="0.952779" stop-color="#98D4FF"></stop>
</linearGradient>
<radialGradient id="paint2_radial_0_247" cx="0" cy="0" r="1" gradientUnits="userSpaceOnUse" gradientTransform="translate(1.5105 -0.225837) rotate(89.3245) scale(10.8895 3.31393)">
<stop offset="0.239583" stop-color="#B7E9FE"></stop>
<stop offset="1" stop-color="#5ECFFF"></stop>
</radialGradient>
<radialGradient id="paint3_radial_0_247" cx="0" cy="0" r="1" gradientUnits="userSpaceOnUse" gradientTransform="translate(41.7742 15.537) rotate(-0.643296) scale(10.8894 3.40256)">
<stop offset="0.239583" stop-color="#B7E9FE"></stop>
<stop offset="1" stop-color="#5ECFFF"></stop>
</radialGradient>
<radialGradient id="paint4_radial_0_247" cx="0" cy="0" r="1" gradientUnits="userSpaceOnUse" gradientTransform="translate(1.5105 -0.225837) rotate(89.3245) scale(10.8895 3.31393)">
<stop offset="0.239583" stop-color="#B7E9FE"></stop>
<stop offset="1" stop-color="#5ECFFF"></stop>
</radialGradient>
<radialGradient id="paint5_radial_0_247" cx="0" cy="0" r="1" gradientUnits="userSpaceOnUse" gradientTransform="translate(41.7742 29.6308) rotate(-0.643296) scale(10.8894 3.40256)">
<stop offset="0.239583" stop-color="#B7E9FE"></stop>
<stop offset="1" stop-color="#5ECFFF"></stop>
</radialGradient>
<radialGradient id="paint6_radial_0_247" cx="0" cy="0" r="1" gradientUnits="userSpaceOnUse" gradientTransform="translate(1.5105 -0.225837) rotate(89.3245) scale(10.8895 3.31393)">
<stop offset="0.239583" stop-color="#B7E9FE"></stop>
<stop offset="1" stop-color="#5ECFFF"></stop>
</radialGradient>
</defs>
</svg>