<svg width="64" height="64" viewBox="0 0 64 64" fill="none" xmlns="http://www.w3.org/2000/svg">
<path d="M1.08821 25.8343C3.73786 27.7967 7.02481 28.9585 10.5852 28.9585C19.3636 28.9585 26.4798 21.896 26.4798 13.1839C26.4798 9.30199 25.067 5.74756 22.7237 2.99951C31.5398 4.56337 38.2349 12.2649 38.2349 21.5301C38.2349 31.9244 29.8086 40.3506 19.4143 40.3506C10.5009 40.3506 3.03476 34.1544 1.08821 25.8343Z" fill="url(#paint0_linear_0_365)"></path>
<g style="mix-blend-mode:darken" opacity="0.4">
<path fill-rule="evenodd" clip-rule="evenodd" d="M22.943 35.82C22.7242 36.2393 22.62 36.7224 22.2234 36.9795C21.8083 37.2485 21.3072 37.2313 20.8139 37.2001C20.1352 37.1571 19.3439 37.2843 18.8996 36.7692C18.4193 36.2123 18.379 35.3567 18.6257 34.6632C18.8583 34.0094 19.5406 33.7117 20.1218 33.3335C20.7567 32.9203 21.3519 32.283 22.0993 32.4027C22.8846 32.5285 23.6264 33.1524 23.8173 33.9253C23.9905 34.6271 23.2776 35.179 22.943 35.82Z" fill="url(#paint1_radial_0_365)" fill-opacity="0.3"></path>
</g>
<g style="mix-blend-mode:darken" opacity="0.32">
<path fill-rule="evenodd" clip-rule="evenodd" d="M34.6775 26.7829C34.3776 27.3576 34.2347 28.0199 33.691 28.3723C33.1221 28.741 32.4352 28.7174 31.759 28.6746C30.8288 28.6157 29.744 28.79 29.135 28.084C28.4767 27.3207 28.4215 26.1478 28.7597 25.1973C29.0785 24.3012 30.0137 23.8931 30.8103 23.3746C31.6806 22.8083 32.4965 21.9347 33.521 22.0988C34.5973 22.2711 35.6142 23.1264 35.8758 24.1858C36.1133 25.1478 35.136 25.9043 34.6775 26.7829Z" fill="url(#paint2_radial_0_365)" fill-opacity="0.3"></path>
</g>
<g style="mix-blend-mode:darken" opacity="0.22">
<path fill-rule="evenodd" clip-rule="evenodd" d="M28.2863 15.6847C28.4394 15.3913 28.5123 15.0533 28.7898 14.8734C29.0802 14.6852 29.4309 14.6973 29.776 14.7191C30.2508 14.7492 30.8045 14.6602 31.1153 15.0206C31.4513 15.4102 31.4795 16.0088 31.3069 16.494C31.1442 16.9514 30.6668 17.1597 30.2602 17.4243C29.816 17.7134 29.3996 18.1593 28.8766 18.0756C28.3272 17.9876 27.8082 17.551 27.6747 17.0103C27.5535 16.5193 28.0523 16.1331 28.2863 15.6847Z" fill="url(#paint3_radial_0_365)" fill-opacity="0.3"></path>
</g>
<path d="M23.507 48.4459C23.6491 48.2298 23.8886 48.0881 24.1605 48.0881C24.5965 48.0881 24.9498 48.453 24.9498 48.9033V51.3162L26.973 50.1097C27.3504 49.8846 27.8333 50.0182 28.051 50.408C28.269 50.7978 28.1396 51.2965 27.7622 51.5214L25.6382 52.7881L27.6592 54.2235C28.0183 54.4787 28.1094 54.9862 27.8623 55.3571C27.6153 55.728 27.1239 55.822 26.7648 55.5669L24.9498 54.278V56.553C24.9498 57.0033 24.5965 57.3681 24.1605 57.3681C23.7245 57.3681 23.3713 57.0033 23.3713 56.553V54.1398L21.3481 55.3463C20.9707 55.5714 20.4878 55.4378 20.2698 55.048C20.052 54.6582 20.1814 54.1597 20.5588 53.9346L22.6829 52.6681L20.6618 51.2327C20.3027 50.9776 20.2117 50.47 20.4587 50.0991C20.7055 49.7283 21.1969 49.6342 21.5563 49.8894L23.3713 51.1783V48.9033C23.3713 48.7338 23.4213 48.5763 23.507 48.4459Z" fill="url(#paint4_radial_0_365)" fill-opacity="0.9"></path>
<path d="M37.851 48.5693C38.0421 48.2787 38.3641 48.0881 38.7299 48.0881C39.3162 48.0881 39.7913 48.5788 39.7913 49.1844V52.4294L42.5122 50.8069C43.0198 50.5041 43.6692 50.6838 43.962 51.208C44.2552 51.7322 44.0812 52.4029 43.5736 52.7054L40.7171 54.4089L43.4351 56.3393C43.918 56.6825 44.0405 57.365 43.7082 57.8638C43.376 58.3626 42.7151 58.4891 42.2322 58.1459L39.7913 56.4125V59.4721C39.7913 60.0777 39.3162 60.5683 38.7299 60.5683C38.1435 60.5683 37.6685 60.0777 37.6685 59.4721V56.2267L34.9475 57.8492C34.44 58.152 33.7906 57.9723 33.4974 57.4481C33.2046 56.9239 33.3786 56.2535 33.8861 55.9507L36.7427 54.2475L34.0247 52.3171C33.5417 51.974 33.4193 51.2914 33.7515 50.7926C34.0834 50.2938 34.7443 50.1674 35.2276 50.5105L37.6685 52.2439V49.1844C37.6685 48.9565 37.7358 48.7446 37.851 48.5693Z" fill="url(#paint5_radial_0_365)" fill-opacity="0.9"></path>
<path d="M52.0631 48.3836C52.1804 48.2051 52.3781 48.0881 52.6027 48.0881C52.9627 48.0881 53.2544 48.3894 53.2544 48.7612V50.7536L54.925 49.7574C55.2366 49.5715 55.6353 49.6818 55.8151 50.0037C55.9951 50.3255 55.8883 50.7373 55.5767 50.9231L53.8228 51.969L55.4916 53.1542C55.7881 53.3649 55.8633 53.784 55.6593 54.0902C55.4553 54.3965 55.0496 54.4741 54.7531 54.2635L53.2544 53.1992V55.0777C53.2544 55.4495 52.9627 55.7508 52.6027 55.7508C52.2427 55.7508 51.951 55.4495 51.951 55.0777V53.0851L50.2804 54.0813C49.9687 54.2672 49.57 54.1569 49.39 53.835C49.2102 53.5131 49.3171 53.1016 49.6287 52.9156L51.3826 51.8699L49.7138 50.6847C49.4172 50.474 49.3421 50.0549 49.5461 49.7487C49.7498 49.4424 50.1556 49.3648 50.4523 49.5754L51.951 50.6397V48.7612C51.951 48.6213 51.9923 48.4912 52.0631 48.3836Z" fill="url(#paint6_radial_0_365)" fill-opacity="0.9"></path>
<path d="M21.1128 27.0238C22.0363 18.9279 28.7227 12.6864 36.6263 12.6864C43.6176 12.6864 49.6855 17.4572 51.6257 24.3811C51.6681 24.3737 51.7147 24.3767 51.7584 24.3708C52.1552 24.3222 52.5563 24.2869 52.9658 24.2869C58.5112 24.2869 63.02 28.9857 63.02 34.7595C63.02 40.5333 58.5112 45.2306 52.9658 45.2306H21.7737C16.9471 45.2306 13.02 41.1407 13.02 36.1125C13.02 31.3299 16.5743 27.3944 21.1128 27.0238Z" fill="url(#paint7_linear_0_365)"></path>
<defs>
<linearGradient id="paint0_linear_0_365" x1="17.5059" y1="2.99951" x2="17.5059" y2="40.3506" gradientUnits="userSpaceOnUse">
<stop stop-color="#A38FEE"></stop>
<stop offset="0.853177" stop-color="#5D4ADE"></stop>
</linearGradient>
<radialGradient id="paint1_radial_0_365" cx="0" cy="0" r="1" gradientUnits="userSpaceOnUse" gradientTransform="translate(21.1297 34.8424) rotate(105) scale(2.61779 2.4731)">
<stop stop-color="#0B17A1" stop-opacity="0.7"></stop>
<stop offset="1" stop-color="#0B17A1"></stop>
</radialGradient>
<radialGradient id="paint2_radial_0_365" cx="0" cy="0" r="1" gradientUnits="userSpaceOnUse" gradientTransform="translate(32.1919 25.4429) rotate(105) scale(3.58827 3.38993)">
<stop stop-color="#0B17A1" stop-opacity="0.7"></stop>
<stop offset="1" stop-color="#0B17A1"></stop>
</radialGradient>
<radialGradient id="paint3_radial_0_365" cx="0" cy="0" r="1" gradientUnits="userSpaceOnUse" gradientTransform="translate(29.555 16.3687) rotate(-75) scale(1.83152 1.73029)">
<stop stop-color="#0B17A1" stop-opacity="0.7"></stop>
<stop offset="1" stop-color="#0B17A1"></stop>
</radialGradient>
<radialGradient id="paint4_radial_0_365" cx="0" cy="0" r="1" gradientUnits="userSpaceOnUse" gradientTransform="translate(24.1885 47.8262) rotate(88.4487) scale(12.6355 8.82664)">
<stop offset="0.239583" stop-color="#B7E9FE"></stop>
<stop offset="1" stop-color="#5ECFFF"></stop>
</radialGradient>
<radialGradient id="paint5_radial_0_365" cx="0" cy="0" r="1" gradientUnits="userSpaceOnUse" gradientTransform="translate(38.7675 47.7358) rotate(88.4487) scale(16.9929 11.8705)">
<stop offset="0.239583" stop-color="#B7E9FE"></stop>
<stop offset="1" stop-color="#5ECFFF"></stop>
</radialGradient>
<radialGradient id="paint6_radial_0_365" cx="0" cy="0" r="1" gradientUnits="userSpaceOnUse" gradientTransform="translate(52.6258 47.8718) rotate(88.4487) scale(10.4333 7.28831)">
<stop offset="0.239583" stop-color="#B7E9FE"></stop>
<stop offset="1" stop-color="#5ECFFF"></stop>
</radialGradient>
<linearGradient id="paint7_linear_0_365" x1="38.02" y1="12.6864" x2="37.995" y2="39.0104" gradientUnits="userSpaceOnUse">
<stop stop-color="white"></stop>
<stop offset="1" stop-color="#BACFDB"></stop>
</linearGradient>
</defs>
</svg>