<svg width="64" height="64" viewBox="0 0 64 64" fill="none" xmlns="http://www.w3.org/2000/svg">
<circle cx="20.5" cy="30.5" r="12.5" fill="url(#paint0_radial_0_73)"></circle>
<path d="M19.3992 12.8352C19.3992 12.2066 19.9088 11.697 20.5375 11.697C21.1661 11.697 21.6757 12.2066 21.6757 12.8352V15.5051C21.6757 16.1337 21.1661 16.6433 20.5375 16.6433C19.9088 16.6433 19.3992 16.1337 19.3992 15.5051V12.8352Z" fill="url(#paint1_linear_0_73)"></path>
<rect x="7" y="16" width="2" height="5" rx="1" transform="rotate(-39.4382 7 16)" fill="url(#paint2_linear_0_73)"></rect>
<rect x="2" y="28" width="2" height="5" rx="1" transform="rotate(-80.0345 2 28)" fill="url(#paint3_linear_0_73)"></rect>
<rect width="2" height="5" rx="1" transform="matrix(-0.494664 -0.869084 -0.869084 0.494664 9 38)" fill="url(#paint4_linear_0_73)"></rect>
<path d="M19.451 33.0625C20.356 25.1285 26.9086 19.0118 34.6541 19.0118C41.5057 19.0118 47.4522 23.6872 49.3536 30.4726C49.3951 30.4654 49.4408 30.4683 49.4837 30.4625C49.8725 30.415 50.2656 30.3804 50.6669 30.3804C56.1013 30.3804 60.52 34.9851 60.52 40.6435C60.52 46.3018 56.1013 50.9051 50.6669 50.9051H20.0986C15.3686 50.9051 11.52 46.897 11.52 41.9694C11.52 37.2825 15.0032 33.4257 19.451 33.0625Z" fill="url(#paint5_linear_0_73)"></path>
<defs>
<radialGradient id="paint0_radial_0_73" cx="0" cy="0" r="1" gradientUnits="userSpaceOnUse" gradientTransform="translate(17.577 22.9462) rotate(13.1231) scale(18.4026)">
<stop offset="0.1937" stop-color="#F5BE6B"></stop>
<stop offset="0.5293" stop-color="#FFB029"></stop>
<stop offset="0.7805" stop-color="#FF9100"></stop>
</radialGradient>
<linearGradient id="paint1_linear_0_73" x1="19.7161" y1="12.4511" x2="22.0729" y2="13.4226" gradientUnits="userSpaceOnUse">
<stop offset="0.1667" stop-color="#FFE475"></stop>
<stop offset="0.7986" stop-color="#FFBF29"></stop>
</linearGradient>
<linearGradient id="paint2_linear_0_73" x1="7.31701" y1="16.7623" x2="9.6815" y2="17.7268" gradientUnits="userSpaceOnUse">
<stop offset="0.1667" stop-color="#FFE475"></stop>
<stop offset="0.7986" stop-color="#FFBF29"></stop>
</linearGradient>
<linearGradient id="paint3_linear_0_73" x1="2.31701" y1="28.7623" x2="4.6815" y2="29.7268" gradientUnits="userSpaceOnUse">
<stop offset="0.1667" stop-color="#FFE475"></stop>
<stop offset="0.7986" stop-color="#FFBF29"></stop>
</linearGradient>
<linearGradient id="paint4_linear_0_73" x1="0.317013" y1="0.762279" x2="2.6815" y2="1.72678" gradientUnits="userSpaceOnUse">
<stop offset="0.1667" stop-color="#FFE475"></stop>
<stop offset="0.7986" stop-color="#FFBF29"></stop>
</linearGradient>
<linearGradient id="paint5_linear_0_73" x1="32.5044" y1="22.9352" x2="36.02" y2="50.9051" gradientUnits="userSpaceOnUse">
<stop stop-color="#EEFAFE"></stop>
<stop offset="1" stop-color="#BACFDB"></stop>
</linearGradient>
</defs>
</svg>