<svg width="64" height="64" viewBox="0 0 64 64" fill="none" xmlns="http://www.w3.org/2000/svg">
<circle cx="20.5" cy="21.5" r="12.5" fill="url(#paint0_radial_0_100)"></circle>
<path d="M19.3989 3.83531C19.3989 3.20665 19.9086 2.69702 20.5372 2.69702C21.1659 2.69702 21.6755 3.20665 21.6755 3.83531V6.50512C21.6755 7.13378 21.1659 7.64341 20.5372 7.64341C19.9086 7.64341 19.3989 7.13378 19.3989 6.50512V3.83531Z" fill="url(#paint1_linear_0_100)"></path>
<rect x="7" y="7" width="2" height="5" rx="1" transform="rotate(-39.4382 7 7)" fill="url(#paint2_linear_0_100)"></rect>
<rect x="2" y="19" width="2" height="5" rx="1" transform="rotate(-80.0345 2 19)" fill="url(#paint3_linear_0_100)"></rect>
<rect width="2" height="5" rx="1" transform="matrix(-0.494664 -0.869084 -0.869084 0.494664 9 29)" fill="url(#paint4_linear_0_100)"></rect>
<rect width="3" height="10" rx="1.5" transform="matrix(0.987743 0.15609 -0.156766 0.987636 44 47)" fill="url(#paint5_radial_0_100)" fill-opacity="0.9"></rect>
<rect width="3" height="15" rx="1.5" transform="matrix(0.987743 0.15609 -0.156766 0.987636 34 46)" fill="url(#paint6_radial_0_100)" fill-opacity="0.9"></rect>
<rect width="3" height="10" rx="1.5" transform="matrix(0.987743 0.15609 -0.156766 0.987636 24 47)" fill="url(#paint7_radial_0_100)" fill-opacity="0.9"></rect>
<path d="M17.4365 23.9464C18.397 15.5266 25.3508 9.03551 33.5705 9.03551C40.8415 9.03551 47.1521 13.9972 49.1699 21.198C49.214 21.1903 49.2625 21.1934 49.308 21.1873C49.7207 21.1368 50.1377 21.1001 50.5636 21.1001C56.3308 21.1001 61.02 25.9868 61.02 31.9915C61.02 37.9963 56.3308 42.8815 50.5636 42.8815H18.1238C13.1042 42.8815 9.02002 38.628 9.02002 33.3987C9.02002 28.4248 12.7165 24.3319 17.4365 23.9464Z" fill="url(#paint8_linear_0_100)"></path>
<defs>
<radialGradient id="paint0_radial_0_100" cx="0" cy="0" r="1" gradientUnits="userSpaceOnUse" gradientTransform="translate(17.577 13.9462) rotate(13.1231) scale(18.4026)">
<stop offset="0.1937" stop-color="#F5BE6B"></stop>
<stop offset="0.5293" stop-color="#FFB029"></stop>
<stop offset="0.7805" stop-color="#FF9100"></stop>
</radialGradient>
<linearGradient id="paint1_linear_0_100" x1="19.7159" y1="3.45113" x2="22.0726" y2="4.42268" gradientUnits="userSpaceOnUse">
<stop offset="0.1667" stop-color="#FFE475"></stop>
<stop offset="0.7986" stop-color="#FFBF29"></stop>
</linearGradient>
<linearGradient id="paint2_linear_0_100" x1="7.31701" y1="7.76228" x2="9.6815" y2="8.72678" gradientUnits="userSpaceOnUse">
<stop offset="0.1667" stop-color="#FFE475"></stop>
<stop offset="0.7986" stop-color="#FFBF29"></stop>
</linearGradient>
<linearGradient id="paint3_linear_0_100" x1="2.31701" y1="19.7623" x2="4.6815" y2="20.7268" gradientUnits="userSpaceOnUse">
<stop offset="0.1667" stop-color="#FFE475"></stop>
<stop offset="0.7986" stop-color="#FFBF29"></stop>
</linearGradient>
<linearGradient id="paint4_linear_0_100" x1="0.317013" y1="0.762279" x2="2.6815" y2="1.72678" gradientUnits="userSpaceOnUse">
<stop offset="0.1667" stop-color="#FFE475"></stop>
<stop offset="0.7986" stop-color="#FFBF29"></stop>
</linearGradient>
<radialGradient id="paint5_radial_0_100" cx="0" cy="0" r="1" gradientUnits="userSpaceOnUse" gradientTransform="translate(1.5105 -0.282296) rotate(89.4596) scale(13.6115 3.31401)">
<stop offset="0.239583" stop-color="#B7E9FE"></stop>
<stop offset="1" stop-color="#5ECFFF"></stop>
</radialGradient>
<radialGradient id="paint6_radial_0_100" cx="0" cy="0" r="1" gradientUnits="userSpaceOnUse" gradientTransform="translate(1.5105 -0.423444) rotate(89.6397) scale(20.4167 3.3141)">
<stop offset="0.239583" stop-color="#B7E9FE"></stop>
<stop offset="1" stop-color="#5ECFFF"></stop>
</radialGradient>
<radialGradient id="paint7_radial_0_100" cx="0" cy="0" r="1" gradientUnits="userSpaceOnUse" gradientTransform="translate(1.5105 -0.282296) rotate(89.4596) scale(13.6115 3.31401)">
<stop offset="0.239583" stop-color="#B7E9FE"></stop>
<stop offset="1" stop-color="#5ECFFF"></stop>
</radialGradient>
<linearGradient id="paint8_linear_0_100" x1="31.2892" y1="13.1991" x2="35.02" y2="42.8815" gradientUnits="userSpaceOnUse">
<stop stop-color="#EEFAFE"></stop>
<stop offset="1" stop-color="#BACFDB"></stop>
</linearGradient>
</defs>
</svg>