<svg width="64" height="64" viewBox="0 0 64 64" fill="none" xmlns="http://www.w3.org/2000/svg">
<path d="M28.9257 34.2H40.5349L33.8611 44.0004L41.6644 44.1481L25.2858 63.5333L29.2531 48.7536H21.9893L28.9257 34.2Z" fill="url(#paint0_linear_0_125)"></path>
<path d="M11.7314 18.6369C12.8396 8.92174 20.8632 1.43198 30.3475 1.43198C38.7372 1.43198 46.0186 7.15696 48.3469 15.4656C48.3977 15.4568 48.4536 15.4603 48.5061 15.4532C48.9823 15.395 49.4635 15.3526 49.955 15.3526C56.6094 15.3526 62.02 20.9911 62.02 27.9197C62.02 34.8483 56.6094 40.485 49.955 40.485H12.5244C6.73252 40.485 2.02002 35.5771 2.02002 29.5433C2.02002 23.8042 6.28516 19.0816 11.7314 18.6369Z" fill="url(#paint1_linear_0_125)"></path>
<defs>
<linearGradient id="paint0_linear_0_125" x1="30.0167" y1="48.8666" x2="20.8264" y2="45.4974" gradientUnits="userSpaceOnUse">
<stop stop-color="#FFD100"></stop>
<stop offset="1" stop-color="#FFF0AA"></stop>
</linearGradient>
<linearGradient id="paint1_linear_0_125" x1="27.7152" y1="6.23612" x2="32.02" y2="40.485" gradientUnits="userSpaceOnUse">
<stop stop-color="#EEFAFE"></stop>
<stop offset="1" stop-color="#BACFDB"></stop>
</linearGradient>
</defs>
</svg>