<svg width="64" height="64" viewBox="0 0 64 64" fill="none" xmlns="http://www.w3.org/2000/svg">
<circle cx="23" cy="23" r="15" fill="url(#paint0_radial_0_156)"></circle>
<path d="M21.6042 2.17332C21.6042 1.42886 22.2077 0.825348 22.9522 0.825348C23.6966 0.825348 24.3001 1.42886 24.3001 2.17332V5.33494C24.3001 6.0794 23.6966 6.68291 22.9522 6.68291C22.2077 6.68291 21.6042 6.0794 21.6042 5.33494V2.17332Z" fill="url(#paint1_linear_0_156)"></path>
<rect x="7" y="6" width="3" height="6" rx="1.5" transform="rotate(-39.4382 7 6)" fill="url(#paint2_linear_0_156)"></rect>
<rect x="1" y="20" width="3" height="6" rx="1.5" transform="rotate(-80.0345 1 20)" fill="url(#paint3_linear_0_156)"></rect>
<rect width="3" height="6" rx="1.5" transform="matrix(-0.494664 -0.869084 -0.869084 0.494664 9 32)" fill="url(#paint4_linear_0_156)"></rect>
<path d="M38.1237 7.68859C38.5922 7.11902 38.516 6.27869 37.9526 5.80269C37.3787 5.3177 36.5189 5.39567 36.0416 5.97602L34.0333 8.4176C33.5648 8.98717 33.641 9.8275 34.2044 10.3035C34.7783 10.7885 35.6381 10.7105 36.1154 10.1302L38.1237 7.68859Z" fill="url(#paint5_linear_0_156)"></path>
<path d="M36.05 40.05H45.301L39.9829 47.8597L46.2011 47.9775L33.1494 63.425L36.3108 51.6475H30.5225L36.05 40.05Z" fill="url(#paint6_linear_0_156)"></path>
<path d="M24.1417 28.256C24.9544 21.1315 30.8384 15.639 37.7935 15.639C43.9459 15.639 49.2856 19.8374 50.993 25.9304C51.0303 25.9239 51.0713 25.9265 51.1098 25.9213C51.459 25.8786 51.8119 25.8475 52.1723 25.8475C57.0522 25.8475 61.02 29.9824 61.02 35.0634C61.02 40.1443 57.0522 44.2779 52.1723 44.2779H24.7233C20.4759 44.2779 17.02 40.6788 17.02 36.254C17.02 32.0453 20.1478 28.5821 24.1417 28.256Z" fill="url(#paint7_linear_0_156)"></path>
<defs>
<radialGradient id="paint0_radial_0_156" cx="0" cy="0" r="1" gradientUnits="userSpaceOnUse" gradientTransform="translate(19.4923 13.9354) rotate(13.1231) scale(22.0832)">
<stop offset="0.1937" stop-color="#F5BE6B"></stop>
<stop offset="0.5293" stop-color="#FFB029"></stop>
<stop offset="0.7805" stop-color="#FF9100"></stop>
</radialGradient>
<linearGradient id="paint1_linear_0_156" x1="21.9795" y1="1.71837" x2="24.7704" y2="2.86889" gradientUnits="userSpaceOnUse">
<stop offset="0.1667" stop-color="#FFE475"></stop>
<stop offset="0.7986" stop-color="#FFBF29"></stop>
</linearGradient>
<linearGradient id="paint2_linear_0_156" x1="7.47552" y1="6.91473" x2="10.7588" y2="8.58884" gradientUnits="userSpaceOnUse">
<stop offset="0.1667" stop-color="#FFE475"></stop>
<stop offset="0.7986" stop-color="#FFBF29"></stop>
</linearGradient>
<linearGradient id="paint3_linear_0_156" x1="1.47552" y1="20.9147" x2="4.75878" y2="22.5888" gradientUnits="userSpaceOnUse">
<stop offset="0.1667" stop-color="#FFE475"></stop>
<stop offset="0.7986" stop-color="#FFBF29"></stop>
</linearGradient>
<linearGradient id="paint4_linear_0_156" x1="0.475519" y1="0.914735" x2="3.75878" y2="2.58884" gradientUnits="userSpaceOnUse">
<stop offset="0.1667" stop-color="#FFE475"></stop>
<stop offset="0.7986" stop-color="#FFBF29"></stop>
</linearGradient>
<linearGradient id="paint5_linear_0_156" x1="37.7609" y1="6.77773" x2="35.0943" y2="5.87887" gradientUnits="userSpaceOnUse">
<stop offset="0.1667" stop-color="#FFE475"></stop>
<stop offset="0.7986" stop-color="#FFBF29"></stop>
</linearGradient>
<linearGradient id="paint6_linear_0_156" x1="36.9193" y1="51.7375" x2="29.5958" y2="49.0527" gradientUnits="userSpaceOnUse">
<stop stop-color="#FFD100"></stop>
<stop offset="1" stop-color="#FFF0AA"></stop>
</linearGradient>
<linearGradient id="paint7_linear_0_156" x1="35.8632" y1="19.1621" x2="39.02" y2="44.2779" gradientUnits="userSpaceOnUse">
<stop stop-color="#EEFAFE"></stop>
<stop offset="1" stop-color="#BACFDB"></stop>
</linearGradient>
</defs>
</svg>