<svg width="64" height="64" viewBox="0 0 64 64" fill="none" xmlns="http://www.w3.org/2000/svg">
<circle cx="19.5" cy="19.5" r="12.5" fill="url(#paint0_radial_0_185)"></circle>
<path d="M18.3989 1.83531C18.3989 1.20665 18.9086 0.697021 19.5372 0.697021C20.1659 0.697021 20.6755 1.20665 20.6755 1.83531V4.50512C20.6755 5.13378 20.1659 5.64341 19.5372 5.64341C18.9086 5.64341 18.3989 5.13378 18.3989 4.50512V1.83531Z" fill="url(#paint1_linear_0_185)"></path>
<rect x="6" y="5" width="2" height="5" rx="1" transform="rotate(-39.4382 6 5)" fill="url(#paint2_linear_0_185)"></rect>
<rect x="1" y="17" width="2" height="5" rx="1" transform="rotate(-80.0345 1 17)" fill="url(#paint3_linear_0_185)"></rect>
<rect width="2" height="5" rx="1" transform="matrix(-0.494664 -0.869084 -0.869084 0.494664 8 27)" fill="url(#paint4_linear_0_185)"></rect>
<path d="M33.2261 45.8077C33.4414 45.4803 33.8043 45.2656 34.2164 45.2656C34.8771 45.2656 35.4124 45.8184 35.4124 46.5008V50.1572L38.4783 48.329C39.0502 47.9878 39.7819 48.1903 40.1119 48.781C40.4422 49.3717 40.2462 50.1274 39.6743 50.4682L36.4556 52.3877L39.5182 54.5629C40.0623 54.9495 40.2003 55.7186 39.8259 56.2807C39.4516 56.8427 38.7069 56.9852 38.1628 56.5985L35.4124 54.6454V58.0928C35.4124 58.7752 34.8771 59.3281 34.2164 59.3281C33.5557 59.3281 33.0204 58.7752 33.0204 58.0928V54.436L29.9545 56.2642C29.3826 56.6054 28.6509 56.4029 28.3205 55.8122C27.9906 55.2216 28.1866 54.4662 28.7585 54.125L31.9772 52.2059L28.9146 50.0308C28.3705 49.6441 28.2325 48.875 28.6068 48.313C28.9808 47.7509 29.7255 47.6084 30.27 47.9951L33.0204 49.9482V46.5008C33.0204 46.244 33.0963 46.0053 33.2261 45.8077Z" fill="url(#paint5_radial_0_185)" fill-opacity="0.9"></path>
<path d="M15.4365 20.9464C16.397 12.5266 23.3508 6.03551 31.5705 6.03551C38.8415 6.03551 45.1521 10.9972 47.1699 18.198C47.214 18.1903 47.2625 18.1934 47.308 18.1873C47.7207 18.1368 48.1377 18.1001 48.5636 18.1001C54.3308 18.1001 59.02 22.9868 59.02 28.9915C59.02 34.9963 54.3308 39.8815 48.5636 39.8815H16.1238C11.1042 39.8815 7.02002 35.628 7.02002 30.3987C7.02002 25.4248 10.7165 21.3319 15.4365 20.9464Z" fill="url(#paint6_linear_0_185)"></path>
<defs>
<radialGradient id="paint0_radial_0_185" cx="0" cy="0" r="1" gradientUnits="userSpaceOnUse" gradientTransform="translate(16.577 11.9462) rotate(13.1231) scale(18.4026)">
<stop offset="0.1937" stop-color="#F5BE6B"></stop>
<stop offset="0.5293" stop-color="#FFB029"></stop>
<stop offset="0.7805" stop-color="#FF9100"></stop>
</radialGradient>
<linearGradient id="paint1_linear_0_185" x1="18.7159" y1="1.45113" x2="21.0726" y2="2.42268" gradientUnits="userSpaceOnUse">
<stop offset="0.1667" stop-color="#FFE475"></stop>
<stop offset="0.7986" stop-color="#FFBF29"></stop>
</linearGradient>
<linearGradient id="paint2_linear_0_185" x1="6.31701" y1="5.76228" x2="8.6815" y2="6.72678" gradientUnits="userSpaceOnUse">
<stop offset="0.1667" stop-color="#FFE475"></stop>
<stop offset="0.7986" stop-color="#FFBF29"></stop>
</linearGradient>
<linearGradient id="paint3_linear_0_185" x1="1.31701" y1="17.7623" x2="3.6815" y2="18.7268" gradientUnits="userSpaceOnUse">
<stop offset="0.1667" stop-color="#FFE475"></stop>
<stop offset="0.7986" stop-color="#FFBF29"></stop>
</linearGradient>
<linearGradient id="paint4_linear_0_185" x1="0.317013" y1="0.762279" x2="2.6815" y2="1.72678" gradientUnits="userSpaceOnUse">
<stop offset="0.1667" stop-color="#FFE475"></stop>
<stop offset="0.7986" stop-color="#FFBF29"></stop>
</linearGradient>
<radialGradient id="paint5_radial_0_185" cx="0" cy="0" r="1" gradientUnits="userSpaceOnUse" gradientTransform="translate(34.2587 44.8686) rotate(88.4487) scale(19.1473 13.3755)">
<stop offset="0.239583" stop-color="#B7E9FE"></stop>
<stop offset="1" stop-color="#5ECFFF"></stop>
</radialGradient>
<linearGradient id="paint6_linear_0_185" x1="29.2892" y1="10.1991" x2="33.02" y2="39.8815" gradientUnits="userSpaceOnUse">
<stop stop-color="#EEFAFE"></stop>
<stop offset="1" stop-color="#BACFDB"></stop>
</linearGradient>
</defs>
</svg>