<svg width="64" height="64" viewBox="0 0 64 64" fill="none" xmlns="http://www.w3.org/2000/svg">
<path d="M15.4132 43.9774C15.5772 43.728 15.8537 43.5645 16.1675 43.5645C16.6708 43.5645 17.0785 43.9856 17.0785 44.5053V47.2904L19.4138 45.8978C19.8494 45.638 20.4067 45.7922 20.6581 46.2421C20.9097 46.692 20.7604 47.2677 20.3247 47.5273L17.8731 48.9893L20.2058 50.6461C20.6203 50.9406 20.7254 51.5264 20.4403 51.9545C20.1551 52.3826 19.5879 52.4912 19.1734 52.1967L17.0785 50.709V53.3348C17.0785 53.8546 16.6708 54.2757 16.1675 54.2757C15.6643 54.2757 15.2566 53.8546 15.2566 53.3348V50.5495L12.9213 51.942C12.4857 52.2019 11.9283 52.0477 11.6767 51.5977C11.4254 51.1478 11.5747 50.5725 12.0103 50.3126L14.462 48.8508L12.1292 47.194C11.7148 46.8995 11.6097 46.3137 11.8948 45.8856C12.1797 45.4575 12.7469 45.349 13.1616 45.6435L15.2566 47.1312V44.5053C15.2566 44.3098 15.3143 44.1279 15.4132 43.9774Z" fill="url(#paint0_radial_0_202)" fill-opacity="0.9"></path>
<path d="M31.9695 44.1198C32.19 43.7844 32.5617 43.5645 32.9839 43.5645C33.6607 43.5645 34.209 44.1308 34.209 44.8298V48.5753L37.3496 46.7025C37.9354 46.353 38.685 46.5604 39.023 47.1655C39.3614 47.7706 39.1605 48.5447 38.5747 48.8938L35.2776 50.8601L38.4148 53.0882C38.9722 53.4843 39.1135 54.2721 38.7301 54.8479C38.3466 55.4236 37.5838 55.5696 37.0264 55.1735L34.209 53.1728V56.7042C34.209 57.4032 33.6607 57.9695 32.9839 57.9695C32.3071 57.9695 31.7588 57.4032 31.7588 56.7042V52.9583L28.6182 54.831C28.0323 55.1805 27.2828 54.9731 26.9444 54.368C26.6064 53.763 26.8072 52.9892 27.3931 52.6397L30.6902 50.6738L27.553 48.4457C26.9955 48.0496 26.8542 47.2618 27.2377 46.6861C27.6208 46.1104 28.3836 45.9644 28.9414 46.3605L31.7588 48.3612V44.8298C31.7588 44.5668 31.8365 44.3222 31.9695 44.1198Z" fill="url(#paint1_radial_0_202)" fill-opacity="0.9"></path>
<path d="M48.3736 43.9054C48.509 43.6995 48.7372 43.5645 48.9964 43.5645C49.4119 43.5645 49.7486 43.9122 49.7486 44.3413V46.641L51.6769 45.4912C52.0366 45.2766 52.4968 45.4039 52.7043 45.7754C52.9121 46.147 52.7888 46.6223 52.4291 46.8366L50.4047 48.0439L52.3309 49.4119C52.6731 49.6551 52.7599 50.1388 52.5245 50.4923C52.289 50.8458 51.8207 50.9354 51.4784 50.6922L49.7486 49.4638V51.632C49.7486 52.0612 49.4119 52.4089 48.9964 52.4089C48.5809 52.4089 48.2442 52.0612 48.2442 51.632V49.3321L46.3159 50.482C45.9562 50.6965 45.496 50.5692 45.2883 50.1977C45.0807 49.8262 45.204 49.3511 45.5637 49.1365L47.5881 47.9295L45.6619 46.5615C45.3197 46.3183 45.2329 45.8346 45.4683 45.4811C45.7036 45.1276 46.1719 45.038 46.5144 45.2812L48.2442 46.5096V44.3413C48.2442 44.1799 48.2919 44.0297 48.3736 43.9054Z" fill="url(#paint2_radial_0_202)" fill-opacity="0.9"></path>
<path d="M11.7314 18.6369C12.8396 8.92174 20.8632 1.43198 30.3475 1.43198C38.7372 1.43198 46.0186 7.15696 48.3469 15.4656C48.3977 15.4568 48.4536 15.4603 48.5061 15.4532C48.9823 15.395 49.4635 15.3526 49.955 15.3526C56.6094 15.3526 62.02 20.9911 62.02 27.9197C62.02 34.8483 56.6094 40.485 49.955 40.485H12.5244C6.73252 40.485 2.02002 35.5771 2.02002 29.5433C2.02002 23.8042 6.28516 19.0816 11.7314 18.6369Z" fill="url(#paint3_linear_0_202)"></path>
<defs>
<radialGradient id="paint0_radial_0_202" cx="0" cy="0" r="1" gradientUnits="userSpaceOnUse" gradientTransform="translate(16.1998 43.2621) rotate(88.4487) scale(14.5843 10.188)">
<stop offset="0.239583" stop-color="#B7E9FE"></stop>
<stop offset="1" stop-color="#5ECFFF"></stop>
</radialGradient>
<radialGradient id="paint1_radial_0_202" cx="0" cy="0" r="1" gradientUnits="userSpaceOnUse" gradientTransform="translate(33.0273 43.1578) rotate(88.4487) scale(19.6137 13.7013)">
<stop offset="0.239583" stop-color="#B7E9FE"></stop>
<stop offset="1" stop-color="#5ECFFF"></stop>
</radialGradient>
<radialGradient id="paint2_radial_0_202" cx="0" cy="0" r="1" gradientUnits="userSpaceOnUse" gradientTransform="translate(49.023 43.3148) rotate(88.4487) scale(12.0425 8.4124)">
<stop offset="0.239583" stop-color="#B7E9FE"></stop>
<stop offset="1" stop-color="#5ECFFF"></stop>
</radialGradient>
<linearGradient id="paint3_linear_0_202" x1="27.7152" y1="6.23612" x2="32.02" y2="40.485" gradientUnits="userSpaceOnUse">
<stop stop-color="#EEFAFE"></stop>
<stop offset="1" stop-color="#BACFDB"></stop>
</linearGradient>
</defs>
</svg>