<svg width="64" height="64" viewBox="0 0 64 64" fill="none" xmlns="http://www.w3.org/2000/svg">
<path d="M25.1509 38.3097L25.1509 10.0512C25.1509 8.12322 25.9168 6.27419 27.2801 4.9109C28.6434 3.5476 30.4924 2.7817 32.4204 2.7817C34.3484 2.7817 36.1974 3.5476 37.5607 4.9109C38.924 6.27419 39.6899 8.12322 39.6899 10.0512L39.6899 38.2949C39.6899 38.6866 39.8726 39.0535 40.1684 39.3102C41.8158 40.7401 43.062 42.5802 43.7775 44.6486C44.5607 46.9128 44.6747 49.3547 44.106 51.6821C43.5372 54.0094 42.3098 56.1236 40.5706 57.7713C38.8314 59.4191 36.6541 60.5308 34.2995 60.9731C33.4448 61.1998 32.5563 61.2702 31.6766 61.1808C29.0239 61.1117 26.4625 60.1977 24.3653 58.5718C22.2681 56.946 20.7446 54.6932 20.0165 52.1415C19.2884 49.5897 19.3937 46.8722 20.3172 44.3845C21.2407 41.8969 22.9339 39.7689 25.1505 38.3103C25.1508 38.3102 25.1509 38.31 25.1509 38.3097Z" fill="url(#paint0_linear_0_236)" fill-opacity="0.6"></path>
<path d="M27.6637 40.8786C27.8063 40.7973 27.8973 40.6472 27.8973 40.483V10.495C27.8973 8.08612 29.8501 6.13331 32.259 6.13331C34.6679 6.13331 36.6207 8.08612 36.6207 10.495V40.4999C36.6207 40.6635 36.7111 40.8131 36.8529 40.8947C36.9851 40.9707 37.1156 41.0502 37.2444 41.133C38.7818 42.1219 39.9915 43.5445 40.7204 45.2209C41.4493 46.8973 41.6648 48.7522 41.3395 50.5511C41.0142 52.3499 40.1628 54.0119 38.8929 55.3269C37.6231 56.6419 35.9918 57.5508 34.2054 57.9386C32.419 58.3265 30.5577 58.1759 28.8569 57.506C27.156 56.836 25.6921 55.6767 24.6501 54.1747C23.6081 52.6727 23.035 50.8955 23.0031 49.0677C22.9603 46.6168 23.8929 44.2492 25.5957 42.4859C26.2108 41.849 26.9082 41.3097 27.6637 40.8786Z" fill="url(#paint1_radial_0_236)"></path>
<defs>
<linearGradient id="paint0_linear_0_236" x1="34.0199" y1="18.2996" x2="22.5672" y2="38.1899" gradientUnits="userSpaceOnUse">
<stop stop-color="#EAF6FF"></stop>
<stop offset="0.738147" stop-color="#76C4FB"></stop>
<stop offset="1" stop-color="#4AB4FF"></stop>
</linearGradient>
<radialGradient id="paint1_radial_0_236" cx="0" cy="0" r="1" gradientUnits="userSpaceOnUse" gradientTransform="translate(32.2443 15.5516) rotate(90) scale(59.4066 37.414)">
<stop offset="0.193671" stop-color="#FF9E75"></stop>
<stop offset="0.529275" stop-color="#FF4629"></stop>
<stop offset="0.780467" stop-color="#FF1100"></stop>
</radialGradient>
</defs>
</svg>