<svg width="64" height="64" viewBox="0 0 64 64" fill="none" xmlns="http://www.w3.org/2000/svg">
<path d="M62.6918 20.8944C62.2682 14.4184 57.1237 9.21334 50.5871 8.78968C46.9557 8.54758 43.5663 9.81857 40.9033 12.3C38.3008 14.721 36.8482 18.1709 36.8482 21.7418C36.8482 23.1338 37.9982 24.2838 39.3902 24.2838C40.7822 24.2838 41.9322 23.1338 41.9322 21.7418C41.9322 19.5629 42.8401 17.5051 44.4137 15.992C45.9873 14.4789 48.1056 13.7526 50.2845 13.8737C54.158 14.1158 57.3657 17.3235 57.6078 21.197C57.7289 23.3759 57.0026 25.4942 55.4895 27.0678C53.9764 28.6415 51.9791 29.5493 49.7398 29.5493L4.26006 29.5493C2.86801 29.5493 1.71806 30.6993 1.71806 32.0913C1.71806 33.4834 2.86801 34.6333 4.26006 34.6333L49.7398 34.6333C53.3107 34.6333 56.7 33.1202 59.1815 30.5782C61.6629 27.9757 62.8734 24.5258 62.6918 20.8944Z" fill="url(#paint0_linear_0_263)"></path>
<path d="M3.77015 25.676H23.835C26.377 25.676 28.7374 24.6471 30.4926 22.8313C32.2478 21.0156 33.1556 18.5947 33.0346 16.0527C32.7925 11.2713 28.8584 7.45834 24.1376 7.33729C21.0509 7.21624 18.1457 8.72934 16.3905 11.2713C15.7248 12.2397 15.9669 13.5107 16.8747 14.1765C17.8431 14.8422 19.1141 14.6001 19.7799 13.6923C20.7482 12.3002 22.3219 11.5134 24.0165 11.574C26.5585 11.6345 28.7374 13.7528 28.919 16.3553C28.9795 17.7473 28.4953 19.0789 27.5269 20.0473C26.5585 21.0762 25.2875 21.6209 23.8955 21.6209H3.77015C2.6202 21.6209 1.71235 22.5287 1.71235 23.6787C1.65182 24.7681 2.6202 25.676 3.77015 25.676Z" fill="url(#paint1_linear_0_263)"></path>
<path d="M28.1929 38.5072L3.76795 38.507C2.618 38.507 1.71014 39.4149 1.71014 40.5648C1.71014 41.7148 2.618 42.6227 3.76795 42.6227L28.1929 42.6228C29.585 42.6228 30.856 43.1675 31.8244 44.1964C32.7927 45.2253 33.2769 46.4963 33.2164 47.8884C33.0953 50.4304 30.977 52.5487 28.435 52.6697C26.4983 52.7302 24.7431 51.7619 23.7747 50.0672C23.5326 49.583 23.0484 49.2199 22.5037 49.0383C21.959 48.8567 21.4143 48.9172 20.9301 49.2198C20.4459 49.4619 20.0827 49.9462 19.9012 50.4909C19.7196 51.0356 19.7801 51.5803 20.0827 52.0645C21.7169 55.0301 24.8036 56.8459 28.1324 56.8459C28.2535 56.8459 28.435 56.8459 28.5561 56.8459C33.2769 56.6038 37.0899 52.7908 37.332 48.0699C37.453 45.5279 36.5452 43.107 34.79 41.2913C33.0953 39.5361 30.7349 38.5072 28.1929 38.5072Z" fill="url(#paint2_linear_0_263)"></path>
<defs>
<linearGradient id="paint0_linear_0_263" x1="37.1701" y1="13.0118" x2="51.3737" y2="47.5739" gradientUnits="userSpaceOnUse">
<stop stop-color="#DBF0FF"></stop>
<stop offset="1" stop-color="#69BCF7"></stop>
</linearGradient>
<linearGradient id="paint1_linear_0_263" x1="23.2199" y1="10.345" x2="37.0071" y2="28.548" gradientUnits="userSpaceOnUse">
<stop stop-color="#DBF0FF"></stop>
<stop offset="1" stop-color="#69BCF7"></stop>
</linearGradient>
<linearGradient id="paint2_linear_0_263" x1="28.3346" y1="41.5204" x2="42.3939" y2="58.5448" gradientUnits="userSpaceOnUse">
<stop stop-color="#DBF0FF"></stop>
<stop offset="1" stop-color="#69BCF7"></stop>
</linearGradient>
</defs>
</svg>