<svg width="64" height="64" viewBox="0 0 64 64" fill="none" xmlns="http://www.w3.org/2000/svg">
<path d="M11.1969 26.0652C12.3606 15.8642 20.7854 8 30.7439 8C39.553 8 47.1985 14.0112 49.6432 22.7353C49.6965 22.726 49.7553 22.7297 49.8104 22.7223C50.3104 22.6612 50.8157 22.6167 51.3317 22.6167C58.3188 22.6167 64 28.5371 64 35.8121C64 43.0871 58.3188 49.0057 51.3317 49.0057H12.0296C5.94813 49.0057 0.999999 43.8524 0.999999 37.5169C0.999999 31.4908 5.4784 26.5321 11.1969 26.0652Z" fill="url(#paint0_linear_0_82)"></path>
<path d="M26.4742 38.4699C27.2131 31.9932 32.5621 27 38.885 27C44.4781 27 49.3324 30.8167 50.8846 36.3557C50.9184 36.3499 50.9557 36.3522 50.9907 36.3475C51.3082 36.3087 51.629 36.2804 51.9566 36.2804C56.3929 36.2804 60 40.0394 60 44.6585C60 49.2775 56.3929 53.0353 51.9566 53.0353H27.0029C23.1417 53.0353 20 49.7634 20 45.7409C20 41.9148 22.8434 38.7664 26.4742 38.4699Z" fill="url(#paint1_linear_0_82)"></path>
<defs>
<linearGradient id="paint0_linear_0_82" x1="27.98" y1="13.0443" x2="32.5" y2="49.0057" gradientUnits="userSpaceOnUse">
<stop stop-color="#EEFAFE"></stop>
<stop offset="1" stop-color="#BACFDB"></stop>
</linearGradient>
<linearGradient id="paint1_linear_0_82" x1="40" y1="27" x2="40" y2="53.0353" gradientUnits="userSpaceOnUse">
<stop stop-color="white"></stop>
<stop offset="1" stop-color="#BACFDB"></stop>
</linearGradient>
</defs>
</svg>