<svg version="1.2" xmlns="http://www.w3.org/2000/svg" viewBox="0 0 1584 190" width="1584" height="190">
&#x9;<title>Thales_Logo-svg</title>
&#x9;
&#x9;<path id="Layer" class="s0" d="m1584 138.9c0 25.6-7.5 33.1-27.8 39.3c-21.9 6.6-60.9 10.8-84.1 10.8c-27.5 0-61.9-1.6-91-8.5v-29.5h161.3v-40.3h-114.2c-34.3 0-47.1-9.5-47.1-42.9v-17.7c0-26.5 7.8-34.4 29.1-39.9c21.6-5.6 57-9.2 80.2-9.2c28.1 0 61.9 2.3 91 8.8v29.5h-158.7v33.8h114.2c34.3 0 47.1 9.1 47.1 42.9z"></path>
&#x9;<path id="Layer" class="s0" d="m1309.1 180.2c-33.4 6.5-67.1 8.5-99.8 8.5c-32.8 0-66.8-2-100.5-8.5v-170.4c33.4-6.5 67.4-8.8 99.8-8.8c32.7 0 65.8 2 99.2 8.8v30.5h-151.2v34.1h98.5v35.4h-98.5v40.3h151.8v30.1z"></path>
&#x9;<path id="Layer" class="s0" d="m1050.5 180.2c-30.1 6.5-60.2 8.5-89.3 8.5c-29.1 0-59.9-1.6-90-8.5v-174.9h48.1v142.5h131.2z"></path>
&#x9;<path id="Layer" class="s0" d="m814.9 181.5c-16 4.6-37.3 6.2-53 6.6l-74.3-150.1h-4.3l-73.9 150.1c-15.7-0.4-34.4-2-50.4-6.6l93.9-175.9h67.1z"></path>
&#x9;<path id="Layer" class="s1" d="m685.5 167.7c-17.3 0-31.3-13.9-31.3-31.1c0-17.2 14-31.1 31.3-31.1c17.3 0 31.2 13.9 31.2 31.1c0 17.2-13.9 31.1-31.2 31.1z"></path>
&#x9;<path id="Layer" class="s0" d="m500.7 181.5c-15.4 4.6-31.7 5.9-48.1 6.2v-76.3h-119.4v76.3c-16.4-0.3-32.8-1.9-48.1-6.2v-173c15.3-4.6 31.7-5.9 48.1-6.2v73.7h119.4v-73.7c16.4 0.3 32.7 2 48.1 6.2z"></path>
&#x9;<path id="Layer" class="s0" d="m216.7 40.6h-84.5v144.2h-47.8v-144.2h-84.4v-30.8c36.3-6.5 73-8.8 108.3-8.8c35.4 0 72 2 108.4 8.8z"></path>
</svg>